<!DOCTYPE svg PUBLIC "-//W3C//DTD SVG 20010904//EN" "http://www.w3.org/TR/2001/REC-SVG-20010904/DTD/svg10.dtd">
<svg version="1.0" xmlns="http://www.w3.org/2000/svg" width="225px" height="225px" viewBox="0 0 2250 2250" preserveAspectRatio="xMidYMid meet">
<g id="layer101" fill="#d50000" stroke="none">
 <path d="M610 1570 l0 -70 -302 -2 -303 -3 0 -395 0 -395 1120 0 1120 0 0 395 0 395 -562 3 -563 2 0 70 0 70 -255 0 -255 0 0 -70z m380 -140 l0 -70 115 0 115 0 0 -260 0 -260 -235 0 -235 0 0 330 0 330 120 0 120 0 0 -70z m-610 -255 l0 -185 65 0 65 0 2 183 3 182 48 3 47 3 0 -260 0 -261 -235 0 -235 0 0 260 0 260 120 0 120 0 0 -185z m1210 0 l0 -185 70 0 70 0 0 185 0 185 75 0 75 0 0 -185 0 -185 65 0 65 0 2 183 3 182 48 3 47 3 0 -260 0 -261 -375 0 -375 0 0 260 0 260 115 0 115 0 0 -185z"/>
 <path d="M990 1105 l0 -115 65 0 65 0 0 115 0 115 -65 0 -65 0 0 -115z"/>
 </g>

</svg>